<svg width="24" height="24" viewBox="0 0 24 24" fill="none" xmlns="http://www.w3.org/2000/svg">
<path d="M21.5998 12L22.1475 12.4359C22.3505 12.1808 22.3505 11.8192 22.1475 11.5641L21.5998 12ZM2.39978 12L1.85209 11.5641C1.64901 11.8192 1.64901 12.1808 1.85209 12.4359L2.39978 12ZM21.5998 12C21.0521 11.5641 21.0522 11.5639 21.0523 11.5638C21.0523 11.5638 21.0524 11.5637 21.0524 11.5637C21.0524 11.5636 21.0524 11.5637 21.0523 11.5638C21.0522 11.564 21.0517 11.5645 21.051 11.5654C21.0496 11.5671 21.0472 11.5701 21.0438 11.5743C21.037 11.5828 21.0261 11.5961 21.0112 11.614C20.9815 11.6498 20.9361 11.704 20.8756 11.7738C20.7547 11.9134 20.5741 12.1155 20.3403 12.3591C19.8719 12.8472 19.1942 13.4979 18.3585 14.1473C16.6699 15.4595 14.4219 16.7 11.9998 16.7V18.1C14.8796 18.1 17.4316 16.6405 19.2175 15.2527C20.1191 14.5522 20.8472 13.8528 21.3504 13.3284C21.6024 13.0658 21.7991 12.846 21.9339 12.6903C22.0013 12.6124 22.0534 12.5506 22.0892 12.5073C22.1071 12.4857 22.121 12.4687 22.1308 12.4567C22.1356 12.4507 22.1395 12.4459 22.1423 12.4424C22.1437 12.4407 22.1448 12.4393 22.1457 12.4382C22.1461 12.4377 22.1465 12.4372 22.1468 12.4368C22.1469 12.4366 22.1471 12.4364 22.1472 12.4363C22.1473 12.4361 22.1475 12.4359 21.5998 12ZM11.9998 16.7C9.57764 16.7 7.32971 15.4595 5.64108 14.1473C4.80537 13.4979 4.12762 12.8472 3.65927 12.3591C3.42549 12.1155 3.2449 11.9134 3.12396 11.7738C3.06351 11.704 3.01803 11.6498 2.98833 11.614C2.97349 11.5961 2.96259 11.5828 2.95574 11.5743C2.95232 11.5701 2.94991 11.5671 2.94853 11.5654C2.94784 11.5645 2.9474 11.564 2.94723 11.5638C2.94714 11.5637 2.94711 11.5636 2.94715 11.5637C2.94718 11.5637 2.94725 11.5638 2.94726 11.5638C2.94736 11.5639 2.94747 11.5641 2.39978 12C1.85209 12.4359 1.85223 12.4361 1.85239 12.4363C1.85247 12.4364 1.85265 12.4366 1.8528 12.4368C1.8531 12.4372 1.85347 12.4377 1.85391 12.4382C1.85477 12.4393 1.85591 12.4407 1.8573 12.4424C1.86009 12.4459 1.86393 12.4507 1.8688 12.4567C1.87854 12.4687 1.89243 12.4857 1.91035 12.5073C1.9462 12.5506 1.99825 12.6124 2.06568 12.6903C2.20049 12.846 2.39712 13.0658 2.64912 13.3284C3.15235 13.8528 3.88048 14.5522 4.78204 15.2527C6.56792 16.6405 9.11998 18.1 11.9998 18.1V16.7ZM2.39978 12C2.94747 12.4359 2.94736 12.4361 2.94726 12.4362C2.94725 12.4362 2.94718 12.4363 2.94715 12.4363C2.94711 12.4364 2.94714 12.4364 2.94723 12.4362C2.9474 12.436 2.94784 12.4355 2.94853 12.4346C2.94991 12.4329 2.95232 12.4299 2.95574 12.4257C2.96259 12.4173 2.97349 12.4039 2.98833 12.386C3.01803 12.3502 3.06351 12.296 3.12396 12.2262C3.2449 12.0866 3.42549 11.8846 3.65927 11.6409C4.12762 11.1528 4.80537 10.5022 5.64108 9.85274C7.32971 8.54052 9.57764 7.30001 11.9998 7.30001V5.90001C9.11998 5.90001 6.56792 7.35949 4.78204 8.74727C3.88048 9.44786 3.15235 10.1472 2.64912 10.6716C2.39712 10.9342 2.20049 11.154 2.06568 11.3097C1.99825 11.3876 1.9462 11.4495 1.91035 11.4927C1.89243 11.5144 1.87854 11.5313 1.8688 11.5433C1.86393 11.5493 1.86009 11.5541 1.8573 11.5576C1.85591 11.5593 1.85477 11.5607 1.85391 11.5618C1.85347 11.5623 1.8531 11.5628 1.8528 11.5632C1.85265 11.5634 1.85247 11.5636 1.85239 11.5637C1.85223 11.5639 1.85209 11.5641 2.39978 12ZM11.9998 7.30001C14.4219 7.30001 16.6699 8.54052 18.3585 9.85274C19.1942 10.5022 19.8719 11.1528 20.3403 11.6409C20.5741 11.8846 20.7547 12.0866 20.8756 12.2262C20.9361 12.296 20.9815 12.3502 21.0112 12.386C21.0261 12.4039 21.037 12.4173 21.0438 12.4257C21.0472 12.4299 21.0496 12.4329 21.051 12.4346C21.0517 12.4355 21.0522 12.436 21.0523 12.4362C21.0524 12.4364 21.0524 12.4364 21.0524 12.4363C21.0524 12.4363 21.0523 12.4362 21.0523 12.4362C21.0522 12.4361 21.0521 12.4359 21.5998 12C22.1475 11.5641 22.1473 11.5639 22.1472 11.5637C22.1471 11.5636 22.1469 11.5634 22.1468 11.5632C22.1465 11.5628 22.1461 11.5623 22.1457 11.5618C22.1448 11.5607 22.1437 11.5593 22.1423 11.5576C22.1395 11.5541 22.1356 11.5493 22.1308 11.5433C22.121 11.5313 22.1071 11.5144 22.0892 11.4927C22.0534 11.4495 22.0013 11.3876 21.9339 11.3097C21.7991 11.154 21.6024 10.9342 21.3504 10.6716C20.8472 10.1472 20.1191 9.44786 19.2175 8.74727C17.4316 7.35949 14.8796 5.90001 11.9998 5.90001V7.30001ZM14.2998 12C14.2998 13.2703 13.27 14.3 11.9998 14.3V15.7C14.0432 15.7 15.6998 14.0435 15.6998 12H14.2998ZM11.9998 14.3C10.7295 14.3 9.69978 13.2703 9.69978 12H8.29978C8.29978 14.0435 9.95633 15.7 11.9998 15.7V14.3ZM9.69978 12C9.69978 10.7298 10.7295 9.70001 11.9998 9.70001V8.30001C9.95633 8.30001 8.29978 9.95655 8.29978 12H9.69978ZM11.9998 9.70001C13.27 9.70001 14.2998 10.7298 14.2998 12H15.6998C15.6998 9.95655 14.0432 8.30001 11.9998 8.30001V9.70001Z" fill="#9E9E9E"/>
</svg>
