<svg width="17" height="16" viewBox="0 0 17 16" fill="none" xmlns="http://www.w3.org/2000/svg">
<path d="M12.325 0C10.846 0 9.4265 0.706267 8.5 1.82234C7.5735 0.706267 6.154 0 4.675 0C2.057 0 0 2.11008 0 4.79564C0 8.09155 2.89 10.7771 7.2675 14.8578L8.5 16L9.7325 14.849C14.11 10.7771 17 8.09155 17 4.79564C17 2.11008 14.943 0 12.325 0ZM8.585 13.5586L8.5 13.6458L8.415 13.5586C4.369 9.80054 1.7 7.31553 1.7 4.79564C1.7 3.05177 2.975 1.74387 4.675 1.74387C5.984 1.74387 7.259 2.60708 7.7095 3.80164H9.299C9.741 2.60708 11.016 1.74387 12.325 1.74387C14.025 1.74387 15.3 3.05177 15.3 4.79564C15.3 7.31553 12.631 9.80054 8.585 13.5586Z" fill="black"/>
</svg>
