<svg width="20" height="17" viewBox="0 0 20 17" fill="none" xmlns="http://www.w3.org/2000/svg">
<path fill-rule="evenodd" clip-rule="evenodd" d="M14.882 5.95272C14.1172 4.35927 12.7034 3.08713 10.8743 2.55615C7.46199 1.5655 3.8927 3.52867 2.90206 6.941C1.91141 10.3534 3.87455 13.9226 7.28691 14.9133L6.689 16.9728C2.13924 15.6519 -0.478317 10.8929 0.842536 6.34309C2.16339 1.79332 6.92249 -0.824228 11.4722 0.496624C13.9339 1.21127 15.8287 2.93206 16.8412 5.07985L17.4517 2.97691L19.5112 3.57481L18.2158 8.03711C18.0507 8.60583 17.4558 8.93303 16.8871 8.76792L12.4248 7.47246L13.0227 5.41294L14.882 5.95272Z" fill="black"/>
</svg>
